<svg width="420" height="280" viewBox="0 0 420 280" fill="none" xmlns="http://www.w3.org/2000/svg">
<rect width="420" height="280" rx="6" fill="white"/>
<rect opacity="0.12" x="226" y="141" width="31" height="6" rx="3" fill="#25283D"/>
<rect opacity="0.12" x="226" y="203" width="48" height="6" rx="3" fill="#25283D"/>
<rect opacity="0.12" x="226" y="234" width="31" height="6" rx="3" fill="#25283D"/>
<rect opacity="0.12" x="226" y="69" width="50" height="8" rx="4" fill="#25283D"/>
<rect opacity="0.64" x="226" y="81" width="31" height="4" rx="2" fill="#00C1FF"/>
<rect opacity="0.12" x="109" y="110" width="78" height="6" rx="3" fill="#25283D"/>
<rect opacity="0.12" x="109" y="141" width="31" height="6" rx="3" fill="#25283D"/>
<rect opacity="0.12" x="109" y="172" width="71" height="6" rx="3" fill="#25283D"/>
<rect opacity="0.12" x="109" y="203" width="62" height="6" rx="3" fill="#25283D"/>
<rect opacity="0.12" x="109" y="234" width="71" height="6" rx="3" fill="#25283D"/>
<rect opacity="0.12" x="109" y="69" width="92" height="8" rx="4" fill="#25283D"/>
<rect opacity="0.64" x="109" y="81" width="31" height="4" rx="2" fill="#00C1FF"/>
<rect opacity="0.12" x="16" y="110" width="62" height="6" rx="3" fill="#25283D"/>
<rect opacity="0.12" x="16" y="141" width="48" height="6" rx="3" fill="#25283D"/>
<rect opacity="0.12" x="16" y="172" width="48" height="6" rx="3" fill="#25283D"/>
<rect opacity="0.12" x="16" y="203" width="62" height="6" rx="3" fill="#25283D"/>
<rect opacity="0.12" x="16" y="234" width="31" height="6" rx="3" fill="#25283D"/>
<rect opacity="0.12" x="16" y="69" width="62" height="8" rx="4" fill="#25283D"/>
<rect opacity="0.64" x="16" y="81" width="31" height="4" rx="2" fill="#00C1FF"/>
<rect opacity="0.08" x="97" y="53" width="227" height="0.999988" rx="0.499994" transform="rotate(90 97 53)" fill="#25283D"/>
<rect opacity="0.08" x="214" y="53" width="227" height="0.999988" rx="0.499994" transform="rotate(90 214 53)" fill="#25283D"/>
<rect opacity="0.08" x="289" y="53" width="227" height="0.999988" rx="0.499994" transform="rotate(90 289 53)" fill="#25283D"/>
<rect opacity="0.12" x="301" y="110" width="50" height="6" rx="3" fill="#25283D"/>
<rect opacity="0.12" x="301" y="141" width="41" height="6" rx="3" fill="#25283D"/>
<rect opacity="0.12" x="301" y="203" width="25" height="6" rx="3" fill="#25283D"/>
<rect opacity="0.12" x="301" y="234" width="50" height="6" rx="3" fill="#25283D"/>
<rect opacity="0.12" x="301" y="69" width="50" height="8" rx="4" fill="#25283D"/>
<rect opacity="0.64" x="301" y="81" width="31" height="4" rx="2" fill="#00C1FF"/>
<rect opacity="0.12" y="97" width="420" height="1" rx="0.5" fill="#25283D"/>
<rect opacity="0.12" y="53" width="420" height="1" rx="0.5" fill="#25283D"/>
<rect opacity="0.12" y="128" width="420" height="1" rx="0.5" fill="#25283D"/>
<rect opacity="0.12" y="159" width="420" height="1" rx="0.5" fill="#25283D"/>
<rect opacity="0.12" y="190" width="420" height="1" rx="0.5" fill="#25283D"/>
<rect opacity="0.12" y="221" width="420" height="1" rx="0.5" fill="#25283D"/>
<rect opacity="0.12" y="252" width="420" height="1" rx="0.5" fill="#25283D"/>
<path opacity="0.12" d="M16 23L64.5 1L113 23L161.5 29L210 11L258.5 9L307 23L355.5 21L404 3V54H16V23Z" fill="#00C1FF"/>
<rect x="312" width="1" height="53" fill="#00C1FF"/>
<rect x="310" y="20.5488" width="4.63702" height="4.63702" rx="2.31851" fill="#00C1FF"/>
<path d="M318.93 5.07073C319.275 5.07073 319.538 4.993 319.717 4.83755C319.902 4.6821 319.994 4.47807 319.994 4.22546V4.17446C319.994 3.91213 319.909 3.71053 319.739 3.56966C319.574 3.42878 319.348 3.35834 319.061 3.35834C318.804 3.35834 318.588 3.4142 318.413 3.52593C318.243 3.63767 318.102 3.79797 317.99 4.00686L317.531 3.6571C317.886 3.1033 318.401 2.82641 319.076 2.82641C319.368 2.82641 319.632 2.87741 319.87 2.97943C320.108 3.07659 320.295 3.22232 320.431 3.41663C320.567 3.61095 320.635 3.84169 320.635 4.10887C320.635 4.41978 320.543 4.67724 320.359 4.88127C320.179 5.0853 319.941 5.22375 319.644 5.29662V5.32576C319.955 5.38406 320.215 5.5225 320.424 5.74111C320.633 5.95971 320.737 6.24875 320.737 6.60823C320.737 6.8997 320.665 7.15717 320.519 7.38063C320.373 7.60409 320.167 7.77897 319.899 7.90527C319.637 8.02672 319.331 8.08744 318.981 8.08744C318.573 8.08744 318.241 8.00972 317.983 7.85426C317.726 7.69396 317.502 7.48264 317.313 7.22032L317.772 6.87055C317.922 7.09887 318.087 7.27132 318.267 7.38791C318.447 7.49964 318.685 7.55551 318.981 7.55551C319.336 7.55551 319.61 7.47292 319.805 7.30776C319.999 7.13773 320.096 6.90213 320.096 6.60094V6.54265C320.096 6.24146 320.001 6.00829 319.812 5.84312C319.623 5.67796 319.343 5.59537 318.974 5.59537H318.369V5.07073H318.93ZM323.205 7.009H324.145L323.307 9.02743H322.819L323.205 7.009ZM329.614 8H326.219V7.37334L327.916 5.84312C328.189 5.60023 328.397 5.3622 328.543 5.12902C328.694 4.89099 328.769 4.65052 328.769 4.40763V4.32019C328.769 4.01415 328.686 3.77854 328.521 3.61338C328.361 3.44335 328.125 3.35834 327.814 3.35834C327.518 3.35834 327.283 3.43364 327.108 3.58423C326.938 3.73482 326.809 3.94857 326.721 4.22546L326.175 4.02143C326.292 3.67653 326.481 3.39234 326.743 3.16888C327.01 2.94057 327.372 2.82641 327.829 2.82641C328.325 2.82641 328.711 2.96243 328.988 3.23446C329.269 3.50165 329.41 3.85627 329.41 4.29833C329.41 4.65781 329.313 4.98814 329.119 5.28933C328.929 5.59051 328.648 5.90384 328.274 6.22932L326.853 7.46807H329.614V8ZM333.976 4.77926C333.976 5.25047 333.884 5.69739 333.699 6.12002C333.52 6.54265 333.289 6.91427 333.007 7.23489C332.725 7.55065 332.434 7.80569 332.133 8H331.346C331.933 7.57737 332.38 7.17417 332.686 6.7904C332.992 6.40177 333.214 5.9257 333.35 5.3622L333.313 5.34762C333.177 5.57594 333.007 5.75568 332.803 5.88684C332.604 6.01315 332.356 6.0763 332.06 6.0763C331.763 6.0763 331.499 6.01315 331.266 5.88684C331.037 5.75568 330.857 5.57351 330.726 5.34034C330.6 5.1023 330.537 4.82541 330.537 4.50965C330.537 4.17931 330.607 3.88784 330.748 3.63524C330.889 3.37777 331.088 3.1786 331.346 3.03772C331.608 2.89685 331.909 2.82641 332.249 2.82641C332.784 2.82641 333.204 3.00129 333.51 3.35105C333.821 3.69596 333.976 4.17203 333.976 4.77926ZM332.257 5.57351C332.601 5.57351 332.871 5.47878 333.065 5.28933C333.26 5.09502 333.357 4.82783 333.357 4.48779V4.42949C333.357 4.08944 333.26 3.82469 333.065 3.63524C332.871 3.44092 332.601 3.34377 332.257 3.34377C331.912 3.34377 331.642 3.44092 331.448 3.63524C331.253 3.82469 331.156 4.08944 331.156 4.42949V4.48779C331.156 4.82783 331.253 5.09502 331.448 5.28933C331.642 5.47878 331.912 5.57351 332.257 5.57351ZM335.059 8V7.46807H336.516V3.36563H336.465L335.183 4.56065L334.826 4.17446L336.174 2.91385H337.129V7.46807H338.469V8H335.059Z" fill="#00C1FF"/>
<path fill-rule="evenodd" clip-rule="evenodd" d="M312.541 36.1097L311.953 35.2123C311.552 34.5996 310.698 34.376 310.045 34.7119L310.197 34.6336C310.035 34.717 309.957 34.9248 310.024 35.0976L310.837 37.201C310.966 37.5344 311.295 38.006 311.568 38.2429C311.568 38.2429 313.203 39.5966 313.203 40.1042V40.7467H315.853L316.515 39.4218L317.178 40.7467H317.84V40.1042C317.84 39.5966 318.84 37.998 318.84 37.998C319.024 37.6873 319.177 37.1399 319.177 36.7765V34.1037C319.165 33.5119 318.662 33.0324 318.041 33.0324C317.731 33.0324 317.479 33.2722 317.479 33.5682V33.7823C317.479 33.1905 316.976 32.7109 316.356 32.7109C316.045 32.7109 315.794 32.9507 315.794 33.2468V33.4608C315.794 32.8691 315.291 32.3895 314.67 32.3895C314.36 32.3895 314.108 32.6293 314.108 32.9253V33.1394C314.108 33.0443 314.098 32.9687 314.078 32.9088L313.907 30.1486C313.884 29.7753 313.569 29.4854 313.203 29.4854C312.835 29.4854 312.541 29.7819 312.541 30.1477V32.7975V36.1097Z" fill="white"/>
<path fill-rule="evenodd" clip-rule="evenodd" d="M311.568 38.2427C311.295 38.0058 310.966 37.5343 310.837 37.2008L310.024 35.0974C309.98 34.9821 309.999 34.8512 310.066 34.752C310.088 34.7182 310.116 34.6881 310.149 34.6636C310.167 34.6563 310.184 34.6495 310.202 34.643C310.79 34.4279 311.489 34.6195 311.879 35.1084C311.905 35.1416 311.93 35.1762 311.954 35.2121L312.541 36.1095V30.1475C312.541 29.7817 312.835 29.4852 313.203 29.4852C313.569 29.4852 313.884 29.7752 313.907 30.1484L314.078 32.9086C314.08 32.914 314.082 32.9195 314.084 32.9252C314.1 32.9823 314.108 33.0527 314.108 33.1392V32.9252C314.108 32.919 314.108 32.9129 314.109 32.9068C314.109 32.904 314.109 32.9013 314.109 32.8986C314.123 32.6149 314.369 32.3893 314.67 32.3893C314.684 32.3893 314.697 32.3896 314.71 32.39C314.941 32.3976 315.154 32.4715 315.329 32.5924C315.553 32.7471 315.715 32.9787 315.772 33.2466C315.786 33.3158 315.794 33.3874 315.794 33.4607V33.2466C315.794 32.9736 316.008 32.7485 316.285 32.7151C316.308 32.7122 316.332 32.7108 316.356 32.7108C316.602 32.7108 316.829 32.7861 317.014 32.9138C317.238 33.0685 317.4 33.3001 317.457 33.568C317.472 33.6372 317.48 33.7088 317.48 33.7821V33.568C317.48 33.2951 317.693 33.0699 317.97 33.0365C317.994 33.0337 318.017 33.0322 318.042 33.0322C318.662 33.0322 319.165 33.5118 319.177 34.1035V36.7763C319.177 37.1397 319.024 37.6872 318.84 37.9979C318.84 37.9979 317.84 39.5965 317.84 40.104V40.7465H317.178L316.516 39.4217L315.853 40.7465H313.203V40.104C313.203 39.5965 311.568 38.2427 311.568 38.2427ZM311.145 38.753L311.139 38.748L311.134 38.7429C310.778 38.4344 310.387 37.8727 310.219 37.4396L309.406 35.3362C309.241 34.9075 309.384 34.4102 309.749 34.1356L309.742 34.1226C309.742 34.1226 309.742 34.1226 309.742 34.1226L309.894 34.0443M309.898 34.0507C310.548 33.7825 311.297 33.8654 311.879 34.2326V30.1475C311.879 29.4174 312.468 28.8228 313.203 28.8228C313.917 28.8228 314.523 29.3825 314.568 30.1074L314.669 31.7269C314.669 31.7269 314.67 31.7269 314.67 31.7269C315.113 31.7269 315.529 31.8871 315.848 32.1571C316.005 32.0869 316.178 32.0483 316.356 32.0483C316.799 32.0483 317.215 32.2085 317.533 32.4786C317.691 32.4083 317.864 32.3698 318.042 32.3698C319.001 32.3698 319.82 33.1165 319.84 34.0901L319.84 34.1035L319.84 36.7763C319.84 37.0375 319.787 37.3277 319.716 37.5839C319.645 37.8405 319.541 38.1141 319.41 38.3354L319.406 38.3423L319.402 38.349L319.4 38.3524L319.392 38.3645L319.362 38.4131C319.336 38.4557 319.299 38.5177 319.253 38.5938C319.163 38.7466 319.043 38.954 318.923 39.1752C318.803 39.3984 318.689 39.6253 318.607 39.8191C318.539 39.9777 318.516 40.0651 318.507 40.0955C318.504 40.1088 318.503 40.1112 318.503 40.104V41.409H316.769L316.516 40.9029L316.263 41.409H312.541V40.1757C312.52 40.1373 312.482 40.0801 312.424 40.0043C312.297 39.8406 312.117 39.648 311.921 39.4555C311.728 39.2659 311.534 39.0895 311.386 38.9596C311.313 38.895 311.252 38.8426 311.209 38.8067L311.161 38.7658L311.149 38.7557L311.145 38.753M310.045 34.7118C310.079 34.6942 310.114 34.6781 310.149 34.6636C310.164 34.6523 310.18 34.6422 310.197 34.6335L310.045 34.7118Z" fill="black" fill-opacity="0.8"/>
<path fill-rule="evenodd" clip-rule="evenodd" d="M315.202 35.4468H314.54V38.0965H315.202V35.4468ZM315.865 35.4468H316.528V38.0965H315.865V35.4468ZM317.189 35.4468H317.852V38.0965H317.189V35.4468Z" fill="#002733"/>
<path d="M16 23L64.5 1L113 23L161.5 29L210 11L258.5 9L307 23L355.5 21L404 3" stroke="#00C1FF"/>
<rect x="16" width="53" height="53" fill="url(#paint0_linear)"/>
<defs>
<linearGradient id="paint0_linear" x1="16" y1="26.5" x2="69" y2="26.5" gradientUnits="userSpaceOnUse">
<stop stop-color="white"/>
<stop offset="1" stop-color="white" stop-opacity="0"/>
</linearGradient>
</defs>
</svg>
