<svg width="112" height="48" viewBox="0 0 112 48" fill="none" xmlns="http://www.w3.org/2000/svg">
<path opacity="0.56" d="M30.1319 23.827L26.2585 19.9456L28.1942 16.0654L34.4876 22.3721C35.2895 23.1756 35.2895 24.4784 34.4876 25.282L26.7416 33.0443C25.9397 33.8478 24.6396 33.8478 23.8377 33.0443C23.0359 32.2407 23.0359 30.9379 23.8377 30.1343L30.1319 23.827Z" fill="#373737"/>
<path d="M23.8382 14.6025C24.6401 13.7989 25.9405 13.7993 26.7424 14.6028L28.1947 16.0581L11.2513 33.037C10.4494 33.8405 9.14901 33.8402 8.34713 33.0366L6.89487 31.5813L23.8382 14.6025ZM16.5766 19.9389L13.6721 22.8495L9.79872 18.9681L4.95718 23.8197L8.83054 27.7012L6.89487 31.5813L0.601407 25.2747C-0.200469 24.4711 -0.200469 23.1683 0.601407 22.3648L8.34713 14.6028C9.14901 13.7993 10.4494 13.7989 11.2513 14.6025L16.5766 19.9389Z" fill="#373737"/>
<path fill-rule="evenodd" clip-rule="evenodd" d="M43.7116 20.6622V27.255H47.333L48.1005 29.4526H43.7116C42.502 29.4526 41.5215 28.4687 41.5215 27.255V20.6622C41.5215 19.4485 42.502 18.4646 43.7116 18.4646H47.333V20.6622H48.1005V16.267C48.1005 15.6602 48.5914 15.1682 49.197 15.1682H50.2935V28.3538C50.2935 28.9607 49.8026 29.4526 49.197 29.4526H48.1005V20.6622H43.7116ZM54.6766 29.4526C53.4671 29.4526 52.4865 28.4687 52.4865 27.255V25.0574C52.4865 23.8437 53.4671 22.8598 54.6766 22.8598H58.298V25.0574H59.0655V20.6622H53.034V19.5634C53.034 18.9566 53.5243 18.4646 54.1291 18.4646H59.0655C60.2767 18.4646 61.2586 19.4485 61.2586 20.6622V28.3538C61.2586 28.9607 60.7676 29.4526 60.1621 29.4526H59.0655V25.0574H54.6766V27.255H58.298L59.0655 29.4526C56.362 29.4526 54.899 29.4526 54.6766 29.4526ZM63.4516 29.4526V19.5634C63.4516 18.9566 63.9418 18.4646 64.5466 18.4646H65.6417V28.3538C65.6417 28.9607 65.1514 29.4526 64.5466 29.4526H63.4516ZM65.6417 16.2742C65.6417 16.5806 65.5367 16.8392 65.3268 17.0498C65.1168 17.2605 64.8591 17.3658 64.5538 17.3658C64.2484 17.3658 63.9883 17.2605 63.7736 17.0498C63.5589 16.8392 63.4516 16.5806 63.4516 16.2742C63.4516 15.9582 63.5589 15.6949 63.7736 15.4842C63.9883 15.2735 64.2484 15.1682 64.5538 15.1682C64.8591 15.1682 65.1168 15.2735 65.3268 15.4842C65.5367 15.6949 65.6417 15.9582 65.6417 16.2742ZM67.8376 29.4526V16.267C67.8376 15.6602 68.3278 15.1682 68.9326 15.1682H70.0277V28.3538C70.0277 28.9607 69.5374 29.4526 68.9326 29.4526H67.8376ZM75.2278 29.457L72.271 20.1579C72.0942 19.5776 72.4274 18.9633 73.0057 18.7859L74.0474 18.4646L76.4597 26.3621L78.6308 19.2424C78.8076 18.6621 79.4121 18.3355 79.9904 18.5129L80.9956 18.8342L77.2711 31.1935C76.9896 32.1174 76.1396 32.7485 75.1768 32.7486L73.3663 32.749C72.7615 32.749 72.2711 32.2572 72.271 31.6504L72.2712 30.5514H74.0912C74.6943 30.5514 75.2254 30.0621 75.2278 29.457Z" fill="#373737"/>
<path opacity="0.56" d="M84.5675 29.5957V28.043H82.9746V29.5957H84.5675ZM89.3317 29.6972C90.104 29.6972 90.758 29.5038 91.2938 29.1168C91.8296 28.7298 92.2037 28.2123 92.4161 27.5641V29.5957H93.7339V18.8574H92.4161V23.6606C92.2037 23.0124 91.8296 22.4949 91.2938 22.1079C90.758 21.721 90.104 21.5275 89.3317 21.5275C88.627 21.5275 87.9995 21.6919 87.4492 22.0208C86.8989 22.3498 86.4669 22.8238 86.1531 23.4429C85.8394 24.0621 85.6825 24.7876 85.6825 25.6196C85.6825 26.4516 85.8394 27.1747 86.1531 27.789C86.4669 28.4033 86.8989 28.8749 87.4492 29.2039C87.9995 29.5328 88.627 29.6972 89.3317 29.6972ZM89.7082 28.5363C88.8973 28.5363 88.248 28.2776 87.7605 27.76C87.273 27.2424 87.0292 26.529 87.0292 25.6196C87.0292 24.7102 87.273 23.9968 87.7605 23.4792C88.248 22.9617 88.8973 22.7029 89.7082 22.7029C90.2295 22.7029 90.6953 22.8214 91.1056 23.0584C91.5159 23.2954 91.8369 23.6364 92.0686 24.0814C92.3003 24.5264 92.4161 25.0392 92.4161 25.6196C92.4161 26.2001 92.3003 26.7104 92.0686 27.1505C91.8369 27.5907 91.5159 27.9317 91.1056 28.1736C90.6953 28.4154 90.2295 28.5363 89.7082 28.5363ZM99.3524 29.6972C100.019 29.6972 100.617 29.5763 101.148 29.3345C101.679 29.0926 102.111 28.754 102.444 28.3187C102.777 27.8833 102.992 27.39 103.088 26.8385H101.684C101.587 27.3803 101.324 27.8132 100.895 28.1373C100.465 28.4614 99.9316 28.6234 99.2945 28.6234C98.5898 28.6234 97.9936 28.3961 97.5061 27.9414C97.0186 27.4867 96.7603 26.8047 96.7314 25.8953H103.088C103.127 25.6922 103.146 25.4503 103.146 25.1698C103.146 24.5023 102.994 23.8928 102.69 23.3414C102.386 22.7899 101.947 22.3498 101.372 22.0208C100.798 21.6919 100.125 21.5275 99.3524 21.5275C98.5898 21.5275 97.914 21.6919 97.3251 22.0208C96.7362 22.3498 96.2752 22.8238 95.9422 23.4429C95.6091 24.0621 95.4426 24.7876 95.4426 25.6196C95.4426 26.4516 95.6091 27.1747 95.9422 27.789C96.2752 28.4033 96.7362 28.8749 97.3251 29.2039C97.914 29.5328 98.5898 29.6972 99.3524 29.6972ZM101.814 25.2568H96.7314C96.77 24.3862 97.0355 23.7259 97.5278 23.2761C98.0202 22.8262 98.6284 22.6013 99.3524 22.6013C99.8061 22.6013 100.226 22.698 100.612 22.8915C100.998 23.085 101.302 23.3801 101.525 23.7767C101.747 24.1733 101.843 24.6667 101.814 25.2568ZM108.721 29.5957L111.835 21.629H110.416L107.954 28.1881L105.463 21.629H104.044L107.158 29.5957H108.721Z" fill="#373737"/>
</svg>
