<svg width="48" height="48" viewBox="0 0 48 48" fill="none" xmlns="http://www.w3.org/2000/svg">
<rect width="48" height="48" rx="6" fill="#F9F9F9"/>
<path d="M23.6667 23.9984C23.6667 21.6971 21.8012 19.8316 19.5 19.8316C17.1988 19.8316 15.3333 21.6971 15.3333 23.9984C15.3333 26.2996 17.1988 28.1651 19.5 28.1651C21.8012 28.1651 23.6667 26.2996 23.6667 23.9984Z" fill="#F9F9F9" stroke="#25283D" stroke-width="2" stroke-linecap="round" stroke-linejoin="round"/>
<path d="M32 15.2499C32 13.8692 30.8807 12.7499 29.5 12.7499C28.1192 12.7499 26.9999 13.8692 26.9999 15.2499C26.9999 16.6306 28.1192 17.7499 29.5 17.7499C30.8807 17.7499 32 16.6306 32 15.2499Z" fill="#F9F9F9" stroke="#25283D" stroke-width="2" stroke-linecap="round" stroke-linejoin="round"/>
<path d="M32 32.7501C32 31.3694 30.8807 30.2501 29.5 30.2501C28.1192 30.2501 26.9999 31.3694 26.9999 32.7501C26.9999 34.1308 28.1192 35.2501 29.5 35.2501C30.8807 35.2501 32 34.1308 32 32.7501Z" fill="#F9F9F9" stroke="#25283D" stroke-width="2" stroke-linecap="round" stroke-linejoin="round"/>
<path d="M19.4999 35.4064L19.4999 29.2084" stroke="#25283D" stroke-width="2" stroke-linecap="round" stroke-linejoin="round"/>
<path d="M27.6326 30.8848L23.2499 26.5022" stroke="#25283D" stroke-width="2" stroke-linecap="round" stroke-linejoin="round"/>
<path d="M27.6326 17.7499L23.2499 22.1325" stroke="#25283D" stroke-width="2" stroke-linecap="round" stroke-linejoin="round"/>
<path d="M21.9999 36.5001C21.9999 35.1194 20.8806 34.0001 19.4998 34.0001C18.1191 34.0001 16.9998 35.1194 16.9998 36.5001C16.9998 37.8809 18.1191 39.0002 19.4998 39.0002C20.8806 39.0002 21.9999 37.8809 21.9999 36.5001Z" fill="#F9F9F9" stroke="#25283D" stroke-width="2" stroke-linecap="round" stroke-linejoin="round"/>
<path d="M19.4999 18.7802L19.4999 12.5822" stroke="#25283D" stroke-width="2" stroke-linecap="round" stroke-linejoin="round"/>
<path d="M21.9999 11.4999C21.9999 10.1191 20.8806 8.99982 19.4998 8.99982C18.1191 8.99982 16.9998 10.1191 16.9998 11.4999C16.9998 12.8806 18.1191 13.9999 19.4998 13.9999C20.8806 13.9999 21.9999 12.8806 21.9999 11.4999Z" fill="#F9F9F9" stroke="#25283D" stroke-width="2" stroke-linecap="round" stroke-linejoin="round"/>
</svg>
