<svg width="21" height="20" viewBox="0 0 21 20" fill="none" xmlns="http://www.w3.org/2000/svg">
<g clip-path="url(#clip0_3366_10522)">
<path d="M17.0504 17.0433H14.0887V12.4025C14.0887 11.2958 14.0662 9.87167 12.5454 9.87167C11.0012 9.87167 10.7654 11.0758 10.7654 12.3208V17.0433H7.80373V7.5H10.6487V8.80083H10.687C11.0845 8.05083 12.0512 7.25917 13.4954 7.25917C16.4962 7.25917 17.0512 9.23417 17.0512 11.805V17.0433H17.0504ZM4.45873 6.19417C3.5054 6.19417 2.73956 5.4225 2.73956 4.47333C2.73956 3.525 3.50623 2.75417 4.45873 2.75417C5.40873 2.75417 6.17873 3.525 6.17873 4.47333C6.17873 5.4225 5.4079 6.19417 4.45873 6.19417ZM5.94373 17.0433H2.97373V7.5H5.94373V17.0433ZM18.532 0H1.48706C0.67123 0 0.0112305 0.645 0.0112305 1.44083V18.5592C0.0112305 19.3558 0.67123 20 1.48706 20H18.5295C19.3445 20 20.0112 19.3558 20.0112 18.5592V1.44083C20.0112 0.645 19.3445 0 18.5295 0H18.532Z" fill="white"/>
</g>
<defs>
<clipPath id="clip0_3366_10522">
<rect width="20" height="20" fill="white" transform="translate(0.0112305)"/>
</clipPath>
</defs>
</svg>
