<svg width="48" height="48" viewBox="0 0 48 48" fill="none" xmlns="http://www.w3.org/2000/svg">
<rect width="48" height="48" rx="24" fill="white"/>
<path d="M24.0005 31.2234L34.41 33.7426V14.1981L24.0005 16.7182V31.2234Z" fill="#205B98"/>
<path d="M34.4092 14.1981L36.4097 15.1984V32.7482L34.4092 33.7476V14.1981Z" fill="#5294CF"/>
<path d="M24.0007 31.2234L13.5903 33.7426V14.1981L24.0007 16.7182V31.2234Z" fill="#5294CF"/>
<path d="M13.5903 14.1981L11.5898 15.1984V32.7482L13.5903 33.7476V14.1981Z" fill="#205B98"/>
<path d="M26.6652 37.6741L30.6178 35.6981V12.3019L26.6652 10.3258L25.4233 23.3315L26.6652 37.6741Z" fill="#5294CF"/>
<path d="M21.3346 37.6741L17.3828 35.6981V12.3019L21.3346 10.3258L22.5772 23.2864L21.3346 37.6741Z" fill="#205B98"/>
<path d="M26.6654 10.3258H21.3345V37.6737H26.6654V10.3258Z" fill="#2D72B8"/>
</svg>
